<?xml version="1.0" encoding="UTF-8" ?>
<!DOCTYPE svg PUBLIC "-//W3C//DTD SVG 1.1//EN" "http://www.w3.org/Graphics/SVG/1.1/DTD/svg11.dtd">
<svg width="39pt" height="39pt" viewBox="0 0 39 39" version="1.1" xmlns="http://www.w3.org/2000/svg">
<g id="#ffffffff">
<path fill="#ede4e3" opacity="1.00" d=" M 13.18 1.13 C 24.30 -3.10 37.60 5.32 38.74 17.07 C 40.48 28.03 30.99 38.96 19.94 38.88 C 9.62 39.40 0.09 30.26 0.12 19.95 C -0.26 11.67 5.47 3.85 13.18 1.13 M 18.03 13.67 C 17.98 17.56 17.98 21.45 18.02 25.33 C 20.14 23.48 22.00 21.35 24.17 19.56 C 22.07 17.65 20.16 15.55 18.03 13.67 Z" />
</g>
<g id="#7db915fe">
<path fill="#7db915" opacity="1.00" d=" M 18.03 13.67 C 20.16 15.55 22.07 17.65 24.17 19.56 C 22.00 21.35 20.14 23.48 18.02 25.33 C 17.98 21.45 17.98 17.56 18.03 13.67 Z" />
</g>
</svg>
