<?xml version="1.0" encoding="UTF-8" ?>
<!DOCTYPE svg PUBLIC "-//W3C//DTD SVG 1.1//EN" "http://www.w3.org/Graphics/SVG/1.1/DTD/svg11.dtd">
<svg width="39pt" height="39pt" viewBox="0 0 39 39" version="1.1" xmlns="http://www.w3.org/2000/svg">
<g id="#ffffffff">
<path fill="#ede4e3" opacity="1.00" d=" M 13.22 1.09 C 24.35 -3.06 37.65 5.35 38.74 17.12 C 40.40 27.70 31.58 38.33 20.94 38.83 C 10.64 39.92 0.65 31.21 0.17 20.90 C -0.69 12.28 5.17 3.93 13.22 1.09 M 14.82 19.47 C 16.98 21.31 18.82 23.49 20.99 25.32 C 21.01 21.44 21.01 17.56 20.99 13.68 C 18.82 15.49 17.01 17.69 14.82 19.47 Z" />
</g>
<g id="#7dba14ff">
<path fill="#7dba14" opacity="1.00" d=" M 14.82 19.47 C 17.01 17.69 18.82 15.49 20.99 13.68 C 21.01 17.56 21.01 21.44 20.99 25.32 C 18.82 23.49 16.98 21.31 14.82 19.47 Z" />
</g>
</svg>
