<?xml version="1.0" encoding="UTF-8" ?>
<!DOCTYPE svg PUBLIC "-//W3C//DTD SVG 1.1//EN" "http://www.w3.org/Graphics/SVG/1.1/DTD/svg11.dtd">
<svg width="127pt" height="118pt" viewBox="0 0 127 118" version="1.1" xmlns="http://www.w3.org/2000/svg">
<g id="#ffffffff">
</g>
<g id="#000000ff">
<path fill="#000000" opacity="1.00" d=" M 2.23 12.87 C 22.78 11.32 43.41 12.16 64.00 12.01 C 84.57 12.15 105.19 11.33 125.73 12.85 C 122.42 19.29 118.19 25.18 114.21 31.21 C 100.88 49.96 88.00 69.02 75.18 88.12 C 71.23 93.55 67.93 99.62 62.81 104.07 C 42.94 73.46 21.18 44.06 2.23 12.87 M 10.62 17.19 C 27.83 43.82 46.05 69.77 63.55 96.21 C 81.25 69.70 99.73 43.72 117.36 17.18 C 81.78 16.89 46.20 16.86 10.62 17.19 Z" />
<path fill="#000000" opacity="1.00" d=" M 17.20 20.86 C 37.77 19.33 58.40 20.18 79.00 19.94 C 89.25 20.10 99.57 19.58 109.79 20.71 C 96.00 43.85 79.68 65.43 64.96 87.98 C 64.22 87.99 62.76 87.99 62.03 88.00 C 47.65 65.25 30.64 44.18 17.20 20.86 M 25.59 25.21 C 38.11 43.86 50.79 62.41 63.28 81.08 C 76.38 62.74 88.74 43.88 101.30 25.17 C 76.06 24.91 50.82 24.85 25.59 25.21 Z" />
<path fill="#000000" opacity="1.00" d=" M 35.20 28.87 C 54.02 27.64 72.96 27.33 91.77 28.71 C 87.53 36.88 82.05 44.32 77.11 52.07 C 72.62 58.55 68.77 65.67 62.77 70.94 C 53.69 56.87 43.20 43.61 35.20 28.87 M 43.62 33.18 C 50.09 43.23 56.76 53.14 63.30 63.14 C 70.28 53.34 76.93 43.29 83.37 33.12 C 70.12 32.90 56.87 32.97 43.62 33.18 Z" />
</g>
<g id="#22b14cff">
<path fill="#22b14c" opacity="1.00" d=" M 10.62 17.19 C 46.20 16.86 81.78 16.89 117.36 17.18 C 99.73 43.72 81.25 69.70 63.55 96.21 C 46.05 69.77 27.83 43.82 10.62 17.19 M 17.20 20.86 C 30.64 44.18 47.65 65.25 62.03 88.00 C 62.76 87.99 64.22 87.99 64.96 87.98 C 79.68 65.43 96.00 43.85 109.79 20.71 C 99.57 19.58 89.25 20.10 79.00 19.94 C 58.40 20.18 37.77 19.33 17.20 20.86 Z" />
<path fill="#22b14c" opacity="1.00" d=" M 43.62 33.18 C 56.87 32.97 70.12 32.90 83.37 33.12 C 76.93 43.29 70.28 53.34 63.30 63.14 C 56.76 53.14 50.09 43.23 43.62 33.18 Z" />
</g>
<g id="#b5e61dff">
<path fill="#b5e61d" opacity="1.00" d=" M 25.59 25.21 C 50.82 24.85 76.06 24.91 101.30 25.17 C 88.74 43.88 76.38 62.74 63.28 81.08 C 50.79 62.41 38.11 43.86 25.59 25.21 M 35.20 28.87 C 43.20 43.61 53.69 56.87 62.77 70.94 C 68.77 65.67 72.62 58.55 77.11 52.07 C 82.05 44.32 87.53 36.88 91.77 28.71 C 72.96 27.33 54.02 27.64 35.20 28.87 Z" />
</g>
</svg>
