<?xml version="1.0" encoding="UTF-8" ?>
<!DOCTYPE svg PUBLIC "-//W3C//DTD SVG 1.1//EN" "http://www.w3.org/Graphics/SVG/1.1/DTD/svg11.dtd">
<svg width="133pt" height="133pt" viewBox="0 0 733 733" version="1.1" xmlns="http://www.w3.org/2000/svg">
<g id="#f7f7f7ff">
<path fill="#f7f7f7" opacity="1.00" d=" M 0.00 0.00 L 733.00 0.00 L 733.00 733.00 L 0.00 733.00 L 0.00 0.00 M 121.55 193.70 C 91.79 209.93 66.11 235.48 53.89 267.49 C 44.30 293.72 39.70 322.09 42.93 349.95 C 43.60 353.31 44.66 356.61 44.89 360.06 C 48.77 356.54 52.05 352.39 56.14 349.08 C 61.70 344.66 68.00 340.81 75.08 339.52 C 83.04 338.37 91.96 339.84 98.00 345.49 C 98.08 345.26 98.26 344.80 98.35 344.57 C 96.89 335.80 97.87 326.78 98.53 317.95 C 100.38 298.78 107.13 279.68 119.94 265.05 C 133.42 250.41 152.18 240.85 171.76 237.67 C 187.82 234.94 204.57 238.39 218.83 246.06 C 234.29 254.11 247.27 266.68 256.23 281.59 C 265.70 298.32 268.32 318.03 267.60 337.00 C 267.77 345.00 266.81 353.28 263.15 360.49 C 260.44 371.50 254.03 381.32 247.08 390.15 C 234.55 405.74 215.47 414.95 195.90 417.76 C 176.86 420.65 156.72 416.84 140.47 406.37 C 124.98 396.20 113.22 380.95 105.66 364.15 C 104.99 363.01 104.64 361.46 103.34 360.85 C 97.93 358.19 92.08 356.45 86.14 355.46 C 80.47 354.44 74.27 354.55 69.11 357.38 C 65.32 359.43 63.31 363.41 60.59 366.57 C 56.88 371.30 52.84 375.81 49.53 380.85 C 51.55 385.19 53.85 389.39 56.27 393.53 C 65.05 410.28 76.86 425.36 90.50 438.43 C 106.48 453.09 124.94 465.74 145.93 471.91 C 160.17 476.22 175.20 477.25 190.00 476.36 C 209.66 474.69 229.04 469.84 247.12 461.93 C 263.64 454.37 276.92 441.47 288.70 427.93 C 295.94 427.02 302.45 422.83 307.05 417.29 C 307.74 417.59 309.12 418.20 309.81 418.51 C 309.78 420.20 309.74 421.89 309.72 423.60 C 312.19 423.59 314.65 423.57 317.12 423.56 C 316.60 409.38 317.07 395.18 316.87 380.99 C 316.77 378.54 316.91 376.09 317.63 373.74 C 323.35 390.14 327.70 407.09 333.34 423.52 C 335.52 423.69 337.72 423.59 339.92 423.63 C 345.47 406.47 350.49 389.12 356.34 372.07 C 356.27 389.29 356.23 406.51 356.33 423.73 C 354.94 423.70 353.56 423.67 352.18 423.65 C 359.04 444.20 366.10 464.69 372.91 485.27 C 375.35 485.28 377.80 485.28 380.24 485.34 C 387.25 465.06 394.08 444.73 401.07 424.46 C 406.02 424.04 410.94 422.06 414.32 418.34 C 418.60 413.69 419.66 407.08 419.76 400.99 C 419.97 387.81 419.75 374.63 419.87 361.45 C 417.37 361.41 414.86 361.40 412.36 361.36 C 412.29 374.88 412.46 388.42 412.29 401.95 C 412.01 407.03 410.70 413.34 405.53 415.63 C 400.13 417.76 393.40 418.03 388.47 414.63 C 384.16 411.59 383.22 405.98 383.20 401.07 C 383.02 387.87 383.15 374.68 383.13 361.48 C 380.58 361.40 378.03 361.39 375.49 361.40 C 375.46 373.94 375.45 386.48 375.48 399.02 C 375.78 404.79 376.30 410.81 379.18 415.95 C 382.26 421.07 388.08 423.82 393.87 424.43 C 388.03 442.28 381.97 460.07 376.72 478.09 C 371.74 461.27 366.37 444.57 361.20 427.81 C 360.55 426.16 360.29 423.84 358.26 423.34 C 359.98 423.58 361.72 423.61 363.47 423.69 C 363.47 402.94 363.42 382.19 363.50 361.43 C 360.18 361.46 356.87 361.45 353.55 361.30 C 347.78 378.87 342.64 396.67 336.86 414.22 C 331.89 396.53 326.00 379.11 321.15 361.40 C 331.07 322.04 323.81 278.59 301.32 244.74 C 289.70 226.78 274.24 211.26 256.18 199.78 C 239.04 188.78 219.34 181.86 199.11 179.58 C 172.63 176.73 145.33 181.72 121.55 193.70 M 182.16 256.05 C 174.61 258.20 166.68 258.50 159.01 259.99 C 136.72 269.89 119.50 291.02 115.29 315.17 C 111.11 332.39 115.01 350.91 124.16 365.90 C 129.14 373.99 136.24 380.44 143.05 386.96 C 146.28 390.11 150.61 391.74 154.84 393.07 C 165.21 396.32 176.19 396.80 186.98 396.66 C 191.96 396.52 197.01 396.71 201.90 395.53 C 211.09 393.40 220.54 391.55 228.88 386.94 C 235.64 383.29 241.12 377.58 245.28 371.19 C 253.49 358.44 256.15 342.95 256.23 328.01 C 255.68 316.05 254.33 303.71 248.86 292.88 C 242.22 280.74 230.93 272.03 219.43 264.77 C 216.08 262.28 212.61 259.86 208.62 258.49 C 205.22 257.10 201.48 257.99 197.94 257.42 C 192.67 256.86 187.44 253.95 182.16 256.05 M 331.51 332.63 C 331.57 341.60 331.58 350.57 331.52 359.54 C 332.68 359.58 333.84 359.63 335.01 359.69 C 335.32 355.59 335.16 351.47 335.19 347.37 C 339.28 347.45 343.38 347.42 347.48 347.48 C 347.58 346.40 347.69 345.32 347.80 344.25 C 343.60 344.22 339.39 344.22 335.19 344.23 C 335.18 341.42 335.17 338.61 335.17 335.81 C 339.99 335.70 344.82 335.81 349.65 335.74 C 349.59 334.69 349.55 333.65 349.50 332.62 C 343.50 332.64 337.50 332.66 331.51 332.63 M 456.39 332.55 C 456.37 333.86 456.36 335.16 456.36 336.48 C 457.45 336.48 458.54 336.49 459.63 336.50 C 459.64 335.18 459.65 333.87 459.66 332.56 C 458.57 332.56 457.48 332.55 456.39 332.55 M 408.32 332.43 C 408.25 335.56 408.23 338.69 408.29 341.82 C 406.05 340.57 403.64 338.80 400.94 339.76 C 392.62 342.12 392.25 355.68 399.74 359.34 C 402.58 360.48 405.79 359.77 408.11 357.84 C 408.08 360.04 409.97 359.66 411.51 359.65 C 411.37 350.69 411.81 341.71 411.29 332.77 C 410.55 332.68 409.07 332.51 408.32 332.43 M 473.11 332.57 C 472.37 334.37 471.62 336.16 470.98 337.99 C 474.29 338.06 475.72 334.83 477.50 332.62 C 476.03 332.58 474.56 332.57 473.11 332.57 M 379.61 340.71 C 379.31 341.36 379.02 342.01 378.74 342.67 C 378.49 340.31 376.65 339.94 374.63 340.35 C 374.87 346.67 374.68 353.00 374.67 359.32 C 375.76 359.48 376.85 359.64 377.96 359.80 C 378.47 354.76 377.88 349.68 378.60 344.66 C 379.98 343.81 381.21 342.36 382.97 342.44 C 384.85 342.09 386.03 343.76 387.29 344.83 C 387.26 349.75 387.32 354.67 387.33 359.60 C 388.42 359.59 389.52 359.58 390.62 359.59 C 390.52 354.42 390.79 349.24 390.44 344.08 C 389.27 339.45 383.30 338.60 379.61 340.71 M 415.93 345.76 C 416.69 345.77 418.21 345.79 418.98 345.80 C 420.40 344.27 421.46 341.83 423.99 342.30 C 427.16 341.68 429.59 344.25 428.89 347.37 C 425.43 348.21 421.70 348.08 418.45 349.62 C 414.83 351.23 414.41 357.12 418.03 358.98 C 421.67 360.76 426.18 359.88 429.19 357.26 C 429.31 359.58 431.18 359.71 433.09 359.67 C 431.69 354.20 432.90 348.52 432.15 343.01 C 428.47 337.30 417.24 338.63 415.93 345.76 M 438.19 343.22 C 435.57 348.04 435.69 355.16 440.45 358.63 C 445.22 361.72 452.69 359.29 453.59 353.31 C 452.91 353.03 451.53 352.47 450.85 352.18 C 450.09 353.65 449.34 355.12 448.57 356.59 C 446.35 357.73 443.99 357.14 441.81 356.26 C 439.79 353.28 439.87 349.51 440.43 346.10 C 441.34 343.22 445.05 341.06 447.77 342.97 C 449.53 344.07 450.33 347.67 452.83 345.85 C 452.66 338.58 441.46 337.53 438.19 343.22 M 488.51 342.00 C 488.50 341.48 488.47 340.45 488.45 339.93 C 487.73 340.08 486.28 340.38 485.55 340.53 C 485.75 346.85 485.68 353.18 485.61 359.51 C 486.69 359.27 488.41 360.20 489.09 359.07 C 489.68 354.44 488.46 349.64 489.68 345.09 C 491.16 341.67 496.81 341.47 498.07 345.16 C 498.60 349.97 498.09 354.83 498.30 359.67 C 499.35 359.60 500.42 359.54 501.49 359.48 C 501.40 354.60 501.60 349.72 501.43 344.84 C 501.51 342.16 498.86 340.24 496.51 339.67 C 493.57 338.90 490.99 340.75 488.51 342.00 M 366.29 340.29 C 366.16 344.81 366.58 349.36 366.09 353.87 C 364.71 357.24 360.82 357.83 357.85 356.32 C 356.57 351.06 357.54 345.59 357.24 340.25 C 356.37 340.27 354.62 340.32 353.75 340.34 C 353.99 345.43 353.37 350.57 354.10 355.62 C 355.39 361.23 363.50 360.87 366.59 356.98 C 365.94 359.35 367.66 359.74 369.57 359.81 C 369.59 353.29 369.54 346.76 369.60 340.24 C 368.49 340.25 367.38 340.27 366.29 340.29 M 456.36 340.23 C 456.43 346.68 456.35 353.13 456.39 359.58 C 457.46 359.59 458.54 359.61 459.63 359.64 C 459.61 353.16 459.67 346.69 459.65 340.22 C 458.55 340.22 457.45 340.22 456.36 340.23 M 468.40 340.60 C 463.17 342.87 462.57 349.92 464.29 354.67 C 466.81 361.35 477.38 361.63 480.65 355.51 C 482.04 352.60 482.01 349.13 481.42 346.02 C 480.07 340.58 473.22 337.90 468.40 340.60 M 432.26 361.39 C 432.29 380.60 432.26 399.81 432.26 419.02 C 432.21 420.62 432.41 422.24 433.06 423.73 C 434.99 423.29 436.94 423.60 438.86 423.65 C 439.56 422.21 439.35 420.52 439.44 418.97 C 439.38 404.36 439.41 389.75 439.42 375.14 C 449.31 390.63 458.34 406.70 468.25 422.17 C 470.43 422.96 472.84 423.10 475.02 424.05 C 472.87 424.55 470.66 424.62 468.46 424.68 L 468.62 423.65 C 464.94 423.72 461.26 423.67 457.59 423.70 C 457.56 444.23 457.66 464.76 457.54 485.29 C 459.89 485.31 462.25 485.32 464.61 485.39 C 464.69 476.29 464.70 467.19 464.60 458.09 C 469.03 458.28 473.55 457.68 477.93 458.57 C 481.46 460.27 483.66 463.76 485.65 467.00 C 489.20 473.01 492.51 479.16 495.86 485.29 C 498.87 485.29 501.89 485.31 504.92 485.29 C 501.49 479.30 498.26 473.20 494.76 467.25 C 492.56 463.76 490.22 460.06 486.48 458.05 C 486.44 457.79 486.37 457.27 486.34 457.01 C 489.74 456.50 493.15 455.31 495.64 452.84 C 502.47 446.24 501.92 434.17 495.46 427.52 C 490.23 423.25 482.91 423.63 476.55 423.77 C 476.57 402.99 476.59 382.21 476.54 361.44 C 474.17 361.44 471.80 361.43 469.44 361.39 C 469.35 377.58 469.45 393.77 469.43 409.96 C 459.33 393.90 449.83 377.46 439.75 361.38 C 437.25 361.41 434.75 361.41 432.26 361.39 M 489.19 361.36 C 489.01 382.06 489.28 402.75 489.05 423.45 C 496.40 423.67 503.76 423.62 511.11 423.52 C 516.50 423.01 522.35 422.17 526.49 418.34 C 531.88 413.33 534.36 406.01 535.32 398.89 C 536.11 389.36 535.74 379.00 530.24 370.78 C 526.78 365.33 520.64 361.86 514.19 361.60 C 505.87 361.16 497.52 361.58 489.19 361.36 M 561.48 361.77 C 553.14 364.76 547.13 372.51 545.07 380.99 C 542.39 391.74 543.07 403.96 549.37 413.37 C 553.03 419.06 559.10 423.01 565.74 424.24 C 565.62 444.60 565.84 464.96 565.63 485.32 C 578.96 485.34 592.30 485.16 605.62 485.41 C 605.75 482.96 605.76 480.51 605.74 478.07 C 594.75 478.10 583.76 477.72 572.77 478.10 C 572.79 473.27 572.77 468.45 572.76 463.63 L 573.72 463.57 C 573.50 463.54 573.04 463.48 572.82 463.44 C 572.78 461.42 572.73 459.40 572.67 457.39 C 582.58 456.98 592.52 457.21 602.44 457.28 C 602.52 454.86 602.54 452.43 602.59 450.02 C 592.67 449.68 582.73 449.96 572.80 449.86 C 572.68 443.68 572.92 437.50 572.65 431.32 C 583.20 430.91 593.80 431.18 604.36 431.21 C 604.44 428.75 604.45 426.29 604.46 423.84 C 595.66 423.52 586.84 423.96 578.06 423.50 C 583.73 421.70 589.00 418.28 592.06 413.06 C 597.38 404.82 598.23 394.45 596.87 384.95 C 595.61 376.46 591.14 368.06 583.53 363.70 C 576.95 359.80 568.65 359.33 561.48 361.77 M 407.82 423.77 C 407.70 444.28 407.78 464.79 407.78 485.30 C 421.12 485.26 434.46 485.36 447.81 485.25 C 447.74 482.82 447.73 480.40 447.75 477.98 C 436.64 477.61 425.51 478.44 414.42 477.72 C 414.68 477.22 415.21 476.23 415.47 475.74 C 414.12 469.68 415.07 463.36 414.86 457.19 C 424.72 457.21 434.58 457.10 444.45 457.28 C 444.59 454.77 444.58 452.26 444.42 449.77 C 434.55 449.98 424.68 449.83 414.82 449.84 C 414.85 443.81 414.74 437.77 414.84 431.74 C 415.06 431.52 415.50 431.08 415.72 430.86 C 425.94 431.46 436.18 430.95 446.41 431.17 C 446.46 428.67 446.47 426.16 446.49 423.66 C 442.24 423.21 438.27 425.23 434.01 424.58 C 425.45 422.81 416.54 424.00 407.82 423.77 M 511.62 423.61 C 511.34 444.17 511.64 464.74 511.46 485.30 C 520.61 484.92 529.92 486.19 538.95 484.39 C 546.89 482.86 552.02 475.45 554.04 468.09 C 556.43 459.34 556.46 449.89 554.25 441.11 C 552.24 433.35 546.54 425.72 538.21 424.37 C 529.42 422.99 520.47 424.06 511.62 423.61 M 649.14 488.08 C 646.71 493.65 644.97 499.51 642.38 505.02 C 643.06 505.09 644.43 505.23 645.11 505.30 C 645.71 503.55 646.27 501.79 647.01 500.09 C 649.41 499.42 652.03 499.95 654.51 499.73 C 655.91 502.05 655.94 506.30 659.73 505.43 C 657.33 499.63 654.89 493.85 652.59 488.02 C 652.12 486.46 649.57 486.46 649.14 488.08 M 672.00 487.93 C 667.03 491.08 666.83 498.52 670.09 502.96 C 672.12 505.80 675.98 505.49 679.05 505.21 C 681.77 504.79 683.15 502.11 684.40 499.97 C 683.83 499.66 682.68 499.02 682.10 498.71 C 681.00 501.14 679.26 504.15 676.07 503.53 C 670.86 503.38 669.63 497.03 670.92 492.98 C 671.69 489.58 675.73 487.87 678.83 489.30 C 680.89 489.75 680.94 493.72 683.57 492.42 C 683.57 487.17 675.95 484.95 672.00 487.93 M 335.47 505.30 C 381.29 505.17 427.12 505.28 472.94 505.25 C 526.47 505.34 580.01 505.07 633.53 505.38 C 633.82 501.78 633.83 498.16 633.51 494.57 C 534.18 494.74 434.84 494.62 335.51 494.62 C 335.37 498.18 335.38 501.74 335.47 505.30 M 661.54 505.21 C 662.55 505.22 663.56 505.23 664.59 505.26 C 664.55 504.36 664.53 503.47 664.52 502.58 C 662.53 502.34 661.37 503.17 661.54 505.21 M 687.50 502.60 C 687.46 503.22 687.36 504.45 687.32 505.06 C 688.56 505.32 690.03 505.81 690.37 504.01 C 690.10 502.44 688.63 502.73 687.50 502.60 Z" />
<path fill="#f7f7f7" opacity="1.00" d=" M 180.33 192.44 C 186.44 188.93 192.99 192.80 198.52 195.54 C 200.32 196.66 200.15 199.07 200.85 200.84 C 201.63 203.63 203.54 206.73 201.71 209.52 C 199.85 212.65 199.59 217.28 195.75 218.76 C 190.92 220.49 184.96 223.30 180.37 219.52 C 175.01 216.94 173.84 210.87 171.57 205.97 C 170.91 203.68 171.39 201.05 173.15 199.37 C 175.38 196.92 177.44 194.16 180.33 192.44 M 184.59 199.01 C 180.52 200.46 175.45 205.51 179.16 209.80 C 182.30 214.86 191.78 216.04 193.76 209.40 C 196.92 203.80 190.30 197.12 184.59 199.01 Z" />
<path fill="#f7f7f7" opacity="1.00" d=" M 101.10 225.97 C 106.59 223.74 111.58 227.55 116.51 229.40 C 118.11 230.03 119.76 231.14 119.93 233.02 C 120.62 237.24 124.13 241.54 121.65 245.80 C 119.64 249.03 119.49 253.88 115.52 255.49 C 111.47 256.81 107.31 258.82 102.95 258.39 C 98.06 256.66 93.25 253.10 91.73 247.93 C 90.95 245.54 89.58 243.41 88.83 241.02 C 88.24 238.23 89.78 235.51 91.64 233.56 C 94.45 230.65 97.01 227.12 101.10 225.97 M 96.38 239.95 C 94.45 247.43 104.49 252.69 110.65 249.49 C 112.82 246.54 114.86 242.81 113.46 239.08 C 111.96 236.00 108.63 233.91 105.21 233.77 C 101.43 234.13 98.40 236.92 96.38 239.95 Z" />
<path fill="#f7f7f7" opacity="1.00" d=" M 250.61 236.41 C 254.16 232.32 258.87 227.69 264.82 228.84 C 268.23 229.99 271.53 231.53 274.80 233.02 C 276.94 234.02 276.93 236.62 277.69 238.54 C 278.72 241.48 280.32 244.88 278.41 247.82 C 276.53 250.84 276.37 255.48 272.45 256.74 C 269.13 257.96 265.68 259.20 262.11 259.30 C 257.39 258.45 253.05 255.08 251.13 250.67 C 249.42 246.11 246.00 240.49 250.61 236.41 M 254.77 243.03 C 254.37 245.95 256.43 248.73 258.77 250.29 C 261.21 252.12 264.40 251.64 267.26 251.71 C 269.66 249.47 271.59 246.36 271.38 242.96 C 270.78 239.84 267.92 237.78 265.10 236.74 C 260.78 235.97 256.53 239.25 254.77 243.03 Z" />
<path fill="#f7f7f7" opacity="1.00" d=" M 67.47 291.76 C 70.84 290.59 74.48 291.44 77.49 293.14 C 80.25 294.60 84.53 295.19 84.96 298.98 C 85.60 302.52 88.70 306.19 86.57 309.76 C 84.38 312.90 84.42 317.84 80.24 319.22 C 76.38 320.52 72.21 322.42 68.07 321.36 C 63.93 319.61 59.89 316.42 58.63 311.92 C 57.63 308.50 54.49 305.14 56.64 301.50 C 59.49 297.61 62.76 293.43 67.47 291.76 M 68.51 299.74 C 65.84 300.73 63.87 303.05 62.62 305.54 C 62.36 311.49 69.70 316.04 75.04 313.80 C 78.02 312.05 79.61 308.32 79.27 304.95 C 77.67 300.88 72.89 297.68 68.51 299.74 Z" />
<path fill="#f7f7f7" opacity="1.00" d=" M 279.16 306.39 C 282.77 301.79 287.35 296.24 293.84 296.68 C 298.21 297.77 302.26 299.90 306.28 301.91 C 306.77 306.71 311.37 311.57 308.21 316.26 C 306.45 319.14 306.24 323.48 302.53 324.66 C 298.73 325.93 294.75 328.00 290.66 327.12 C 286.42 325.48 282.23 322.42 280.84 317.91 C 279.67 314.21 276.62 310.22 279.16 306.39 M 292.52 304.63 C 289.16 305.40 286.36 307.88 284.79 310.89 C 284.18 316.19 290.01 320.53 295.04 319.78 C 298.40 320.11 300.04 316.70 300.92 314.04 C 302.88 309.16 297.27 303.94 292.52 304.63 Z" />
<path fill="#f7f7f7" opacity="1.00" d=" M 400.27 343.47 C 402.01 341.57 405.28 342.20 406.79 344.09 C 408.89 346.55 408.57 350.03 408.23 353.02 C 407.46 356.37 403.38 358.79 400.42 356.35 C 397.07 353.03 396.79 346.79 400.27 343.47 Z" />
<path fill="#f7f7f7" opacity="1.00" d=" M 470.18 342.94 C 472.91 341.10 476.88 343.17 477.84 346.10 C 478.83 349.20 478.83 353.07 476.54 355.63 C 474.79 357.52 471.59 358.01 469.53 356.31 C 466.40 354.28 467.12 350.04 467.32 346.87 C 467.32 345.07 468.84 343.87 470.18 342.94 Z" />
<path fill="#f7f7f7" opacity="1.00" d=" M 419.55 352.66 C 422.10 350.49 425.86 350.87 428.97 350.05 C 428.79 352.36 429.02 355.20 426.59 356.42 C 423.84 359.06 417.35 356.97 419.55 352.66 Z" />
<path fill="#f7f7f7" opacity="1.00" d=" M 566.59 367.78 C 572.52 366.45 579.04 368.28 583.22 372.75 C 588.87 378.59 590.08 387.26 589.65 395.05 C 589.53 401.72 587.34 408.73 582.19 413.22 C 577.63 417.46 570.66 418.61 564.84 416.65 C 560.04 415.19 556.28 411.30 554.01 406.94 C 550.55 399.17 550.81 390.20 552.58 382.05 C 554.09 375.14 559.66 369.33 566.59 367.78 Z" />
<path fill="#f7f7f7" opacity="1.00" d=" M 496.52 368.70 C 503.64 368.95 510.97 367.93 517.90 370.03 C 523.65 372.58 526.72 378.94 527.47 384.93 C 528.20 392.31 528.28 400.10 525.34 407.05 C 523.76 410.88 520.66 414.25 516.53 415.27 C 510.01 416.98 503.19 415.96 496.54 416.24 C 496.56 400.39 496.61 384.54 496.52 368.70 Z" />
<path fill="#f7f7f7" opacity="1.00" d=" M 87.52 385.74 C 90.72 384.08 94.72 384.09 97.90 385.79 C 100.64 387.22 103.88 387.88 106.15 390.09 C 106.95 394.63 110.62 399.38 107.99 403.94 C 106.30 406.84 106.09 411.15 102.45 412.42 C 98.23 413.99 93.49 415.87 88.98 414.30 C 85.20 412.34 81.49 409.38 80.40 405.07 C 79.48 401.72 76.44 398.30 78.64 394.82 C 80.95 391.29 84.07 388.17 87.52 385.74 M 90.66 392.90 C 88.01 394.18 85.58 396.34 84.48 399.12 C 84.35 403.95 89.40 407.95 94.06 407.60 C 97.84 408.11 100.51 404.37 100.82 400.98 C 102.05 395.57 95.59 390.80 90.66 392.90 Z" />
<path fill="#f7f7f7" opacity="1.00" d=" M 464.61 430.56 C 470.72 430.60 476.84 430.47 482.95 430.61 C 486.34 430.74 490.07 432.14 491.79 435.26 C 494.87 440.49 492.66 448.61 486.39 450.20 C 479.22 451.64 471.85 450.53 464.60 451.13 C 464.71 444.28 464.67 437.42 464.61 430.56 Z" />
<path fill="#f7f7f7" opacity="1.00" d=" M 518.70 431.11 C 524.94 431.33 531.26 430.66 537.44 431.77 C 544.01 433.72 547.24 440.78 548.12 447.08 C 549.03 455.11 548.86 463.75 545.04 471.06 C 543.17 474.85 539.14 477.32 534.97 477.64 C 529.57 478.10 524.13 477.85 518.72 477.90 C 518.71 462.30 518.74 446.71 518.70 431.11 Z" />
<path fill="#f7f7f7" opacity="1.00" d=" M 185.26 431.92 C 187.01 430.43 188.81 432.03 190.47 432.77 C 192.38 433.78 194.80 433.95 196.28 435.68 C 199.22 439.38 203.32 442.84 203.38 447.97 C 202.87 452.51 201.63 457.22 198.85 460.93 C 195.46 463.83 190.87 465.78 186.35 464.99 C 175.69 463.92 167.27 451.84 171.41 441.58 C 173.91 435.99 180.23 434.37 185.26 431.92 M 183.26 440.19 C 176.57 443.54 178.33 455.80 185.90 456.68 C 191.50 457.59 197.44 451.18 194.24 445.85 C 193.98 445.16 193.47 443.78 193.21 443.08 L 193.07 443.69 C 191.58 439.99 186.73 438.11 183.26 440.19 Z" />
<path fill="#f7f7f7" opacity="1.00" d=" M 650.73 489.71 C 652.10 492.25 652.87 495.06 653.94 497.74 C 651.90 497.76 649.87 497.77 647.85 497.79 C 648.79 495.09 649.73 492.38 650.73 489.71 Z" />
</g>
<g id="#439a49ff">
<path fill="#439a49" opacity="1.00" d=" M 121.55 193.70 C 145.33 181.72 172.63 176.73 199.11 179.58 C 219.34 181.86 239.04 188.78 256.18 199.78 C 274.24 211.26 289.70 226.78 301.32 244.74 C 323.81 278.59 331.07 322.04 321.15 361.40 C 317.41 361.38 313.67 361.37 309.93 361.31 C 309.65 365.90 309.67 370.50 309.84 375.09 C 308.59 375.19 307.04 376.28 306.09 374.98 C 300.55 369.35 293.11 365.06 284.99 365.32 C 269.24 364.47 255.48 378.65 254.65 394.00 C 253.16 408.46 262.73 423.75 277.10 427.29 C 280.87 428.31 284.84 428.43 288.70 427.93 C 276.92 441.47 263.64 454.37 247.12 461.93 C 229.04 469.84 209.66 474.69 190.00 476.36 C 175.20 477.25 160.17 476.22 145.93 471.91 C 124.94 465.74 106.48 453.09 90.50 438.43 C 76.86 425.36 65.05 410.28 56.27 393.53 C 53.85 389.39 51.55 385.19 49.53 380.85 C 52.84 375.81 56.88 371.30 60.59 366.57 C 63.31 363.41 65.32 359.43 69.11 357.38 C 74.27 354.55 80.47 354.44 86.14 355.46 C 92.08 356.45 97.93 358.19 103.34 360.85 C 104.64 361.46 104.99 363.01 105.66 364.15 C 113.22 380.95 124.98 396.20 140.47 406.37 C 156.72 416.84 176.86 420.65 195.90 417.76 C 215.47 414.95 234.55 405.74 247.08 390.15 C 254.03 381.32 260.44 371.50 263.15 360.49 C 266.81 353.28 267.77 345.00 267.60 337.00 C 268.32 318.03 265.70 298.32 256.23 281.59 C 247.27 266.68 234.29 254.11 218.83 246.06 C 204.57 238.39 187.82 234.94 171.76 237.67 C 152.18 240.85 133.42 250.41 119.94 265.05 C 107.13 279.68 100.38 298.78 98.53 317.95 C 97.87 326.78 96.89 335.80 98.35 344.57 C 98.26 344.80 98.08 345.26 98.00 345.49 C 91.96 339.84 83.04 338.37 75.08 339.52 C 68.00 340.81 61.70 344.66 56.14 349.08 C 52.05 352.39 48.77 356.54 44.89 360.06 C 44.66 356.61 43.60 353.31 42.93 349.95 C 39.70 322.09 44.30 293.72 53.89 267.49 C 66.11 235.48 91.79 209.93 121.55 193.70 M 181.26 184.36 C 174.44 186.80 169.12 192.69 166.38 199.30 C 165.02 204.05 165.06 209.11 165.26 214.01 C 165.62 218.90 170.06 221.90 173.86 224.24 C 180.03 228.26 187.95 228.01 194.89 226.69 C 203.22 222.12 209.42 212.74 208.84 203.02 C 208.71 189.83 193.34 180.54 181.26 184.36 M 102.42 217.56 C 92.58 219.86 84.83 228.40 82.48 238.08 C 82.45 244.06 80.95 250.98 84.88 256.11 C 90.75 262.25 99.39 266.05 107.96 265.09 C 110.71 264.69 113.84 264.99 116.17 263.19 C 123.64 257.90 129.76 249.51 129.48 239.99 C 130.49 226.05 115.38 215.41 102.42 217.56 M 258.26 222.31 C 252.55 224.31 248.01 228.72 244.83 233.74 C 241.56 238.87 241.94 245.25 242.02 251.07 C 242.33 256.05 246.27 259.42 250.32 261.70 C 256.21 266.02 264.01 266.01 270.91 264.82 C 278.00 261.60 282.69 254.62 285.37 247.52 C 286.78 240.12 285.13 231.06 278.34 226.75 C 272.72 222.48 265.17 220.08 258.26 222.31 M 67.27 284.34 C 61.54 285.24 57.62 289.91 54.12 294.11 C 49.43 299.93 49.39 307.90 50.25 314.95 C 51.28 320.53 56.66 323.48 61.25 325.86 C 66.00 328.62 71.70 327.74 76.93 327.56 C 80.54 327.59 82.96 324.68 85.37 322.43 C 90.49 317.78 94.08 311.00 93.72 303.96 C 94.16 297.28 89.92 290.96 84.29 287.67 C 79.24 284.70 73.11 282.74 67.27 284.34 M 287.40 290.51 C 280.04 293.63 274.19 300.46 272.39 308.27 C 271.84 313.10 271.60 318.22 272.95 322.92 C 276.99 329.21 284.49 333.41 291.98 333.47 C 296.29 333.31 301.33 333.88 304.74 330.66 C 308.33 327.63 311.79 324.20 313.62 319.78 C 317.50 312.29 316.35 302.54 310.58 296.33 C 304.26 291.02 295.56 287.75 287.40 290.51 M 88.44 377.72 C 83.36 379.75 78.95 383.32 75.83 387.82 C 71.69 393.22 71.34 400.46 71.87 406.98 C 72.18 412.22 76.73 415.79 80.96 418.15 C 87.23 421.87 95.13 422.22 101.98 420.07 C 109.02 415.40 115.50 407.93 115.42 399.00 C 116.07 392.36 113.09 385.20 107.25 381.72 C 101.79 378.08 94.95 375.95 88.44 377.72 M 184.37 424.45 C 176.26 425.67 169.81 431.83 165.79 438.67 C 163.04 442.90 163.62 448.17 163.49 452.97 C 163.54 456.57 163.38 460.87 166.32 463.48 C 171.76 468.24 178.47 472.39 185.96 472.13 C 190.18 471.89 194.93 472.14 198.40 469.29 C 205.50 463.77 211.58 455.32 210.79 445.91 C 210.88 432.68 196.84 422.91 184.37 424.45 Z" />
<path fill="#439a49" opacity="1.00" d=" M 282.48 377.66 C 287.99 376.38 293.52 378.84 297.88 382.04 C 302.62 385.90 303.25 392.32 303.80 397.99 C 304.43 404.80 300.19 411.23 294.84 415.05 C 289.34 416.54 283.00 417.04 277.90 414.08 C 272.59 409.44 266.72 403.59 266.87 396.02 C 267.74 390.88 270.34 385.75 274.64 382.66 C 277.11 380.80 279.36 378.37 282.48 377.66 M 283.20 384.25 C 274.41 386.84 271.72 399.54 278.35 405.76 C 283.49 411.90 294.18 409.00 296.53 401.64 C 300.60 393.30 292.68 381.48 283.20 384.25 Z" />
</g>
<g id="#01812bff">
<path fill="#01812b" opacity="1.00" d=" M 181.26 184.36 C 193.34 180.54 208.71 189.83 208.84 203.02 C 209.42 212.74 203.22 222.12 194.89 226.69 C 187.95 228.01 180.03 228.26 173.86 224.24 C 170.06 221.90 165.62 218.90 165.26 214.01 C 165.06 209.11 165.02 204.05 166.38 199.30 C 169.12 192.69 174.44 186.80 181.26 184.36 M 180.33 192.44 C 177.44 194.16 175.38 196.92 173.15 199.37 C 171.39 201.05 170.91 203.68 171.57 205.97 C 173.84 210.87 175.01 216.94 180.37 219.52 C 184.96 223.30 190.92 220.49 195.75 218.76 C 199.59 217.28 199.85 212.65 201.71 209.52 C 203.54 206.73 201.63 203.63 200.85 200.84 C 200.15 199.07 200.32 196.66 198.52 195.54 C 192.99 192.80 186.44 188.93 180.33 192.44 Z" />
<path fill="#01812b" opacity="1.00" d=" M 184.31 201.24 C 188.36 199.32 195.43 203.78 192.59 208.42 C 191.63 211.17 188.49 211.74 185.97 212.12 C 182.65 212.16 180.02 208.95 179.60 205.86 C 179.93 203.51 182.32 202.12 184.31 201.24 Z" />
<path fill="#01812b" opacity="1.00" d=" M 102.42 217.56 C 115.38 215.41 130.49 226.05 129.48 239.99 C 129.76 249.51 123.64 257.90 116.17 263.19 C 113.84 264.99 110.71 264.69 107.96 265.09 C 99.39 266.05 90.75 262.25 84.88 256.11 C 80.95 250.98 82.45 244.06 82.48 238.08 C 84.83 228.40 92.58 219.86 102.42 217.56 M 101.10 225.97 C 97.01 227.12 94.45 230.65 91.64 233.56 C 89.78 235.51 88.24 238.23 88.83 241.02 C 89.58 243.41 90.95 245.54 91.73 247.93 C 93.25 253.10 98.06 256.66 102.95 258.39 C 107.31 258.82 111.47 256.81 115.52 255.49 C 119.49 253.88 119.64 249.03 121.65 245.80 C 124.13 241.54 120.62 237.24 119.93 233.02 C 119.76 231.14 118.11 230.03 116.51 229.40 C 111.58 227.55 106.59 223.74 101.10 225.97 Z" />
<path fill="#01812b" opacity="1.00" d=" M 258.26 222.31 C 265.17 220.08 272.72 222.48 278.34 226.75 C 285.13 231.06 286.78 240.12 285.37 247.52 C 282.69 254.62 278.00 261.60 270.91 264.82 C 264.01 266.01 256.21 266.02 250.32 261.70 C 246.27 259.42 242.33 256.05 242.02 251.07 C 241.94 245.25 241.56 238.87 244.83 233.74 C 248.01 228.72 252.55 224.31 258.26 222.31 M 250.61 236.41 C 247.60 235.36 247.15 238.88 247.16 241.00 C 247.22 244.96 247.09 249.93 251.01 252.21 L 251.13 250.67 C 253.05 255.08 257.39 258.45 262.11 259.30 C 265.68 259.20 269.13 257.96 272.45 256.74 C 276.37 255.48 276.53 250.84 278.41 247.82 C 280.32 244.88 278.72 241.48 277.69 238.54 C 276.93 236.62 276.94 234.02 274.80 233.02 C 271.53 231.53 268.23 229.99 264.82 228.84 C 258.87 227.69 254.16 232.32 250.61 236.41 Z" />
<path fill="#01812b" opacity="1.00" d=" M 96.38 239.95 C 98.40 236.92 101.43 234.13 105.21 233.77 C 108.63 233.91 111.96 236.00 113.46 239.08 C 114.86 242.81 112.82 246.54 110.65 249.49 C 104.49 252.69 94.45 247.43 96.38 239.95 Z" />
<path fill="#01812b" opacity="1.00" d=" M 254.77 243.03 C 256.53 239.25 260.78 235.97 265.10 236.74 C 267.92 237.78 270.78 239.84 271.38 242.96 C 271.59 246.36 269.66 249.47 267.26 251.71 C 264.40 251.64 261.21 252.12 258.77 250.29 C 256.43 248.73 254.37 245.95 254.77 243.03 Z" />
<path fill="#01812b" opacity="1.00" d=" M 175.96 283.95 C 178.44 278.43 180.69 272.77 183.87 267.60 C 192.08 282.00 199.73 296.72 207.71 311.25 C 212.61 320.93 215.71 331.48 217.31 342.19 C 217.86 350.78 218.92 359.97 215.00 367.98 C 211.93 374.45 205.88 379.07 199.17 381.27 L 198.19 381.65 C 198.59 385.26 201.02 388.26 201.23 391.92 C 198.10 392.49 195.17 391.48 192.25 390.57 C 190.14 390.93 188.17 391.88 186.03 392.10 C 184.27 391.56 182.63 390.70 180.88 390.15 C 179.24 390.24 177.83 391.25 176.34 391.86 C 175.80 391.06 175.25 390.26 174.71 389.47 C 171.95 391.03 168.70 391.26 165.65 390.50 C 164.71 390.23 162.06 389.89 163.36 388.41 C 166.47 386.52 172.06 386.58 172.43 381.92 C 172.92 379.80 170.16 379.48 168.83 378.84 C 162.59 374.67 156.85 369.20 153.77 362.25 C 150.95 355.86 151.78 348.67 153.03 342.01 C 154.99 329.66 159.87 318.03 165.44 306.93 C 168.36 300.41 171.45 293.98 174.61 287.58 C 177.23 288.52 178.18 285.10 175.96 283.95 M 184.56 309.20 C 184.88 316.78 183.91 324.32 183.49 331.87 C 181.38 330.29 179.04 328.99 176.30 329.28 C 176.47 333.49 179.73 336.62 180.43 340.69 C 182.41 349.98 181.37 359.56 182.07 368.98 C 182.34 374.10 180.74 379.52 182.69 384.42 C 184.08 387.28 187.23 386.46 189.60 385.44 C 189.94 379.58 189.50 373.70 189.85 367.85 C 192.66 362.42 198.91 359.76 201.99 354.50 C 198.59 352.39 194.53 350.78 190.57 352.45 C 188.44 342.75 188.52 332.73 186.94 322.93 C 186.16 318.34 186.81 313.45 184.56 309.20 Z" />
<path fill="#01812b" opacity="1.00" d=" M 67.27 284.34 C 73.11 282.74 79.24 284.70 84.29 287.67 C 89.92 290.96 94.16 297.28 93.72 303.96 C 94.08 311.00 90.49 317.78 85.37 322.43 C 82.96 324.68 80.54 327.59 76.93 327.56 C 71.70 327.74 66.00 328.62 61.25 325.86 C 56.66 323.48 51.28 320.53 50.25 314.95 C 49.39 307.90 49.43 299.93 54.12 294.11 C 57.62 289.91 61.54 285.24 67.27 284.34 M 67.47 291.76 C 62.76 293.43 59.49 297.61 56.64 301.50 C 54.49 305.14 57.63 308.50 58.63 311.92 C 59.89 316.42 63.93 319.61 68.07 321.36 C 72.21 322.42 76.38 320.52 80.24 319.22 C 84.42 317.84 84.38 312.90 86.57 309.76 C 88.70 306.19 85.60 302.52 84.96 298.98 C 84.53 295.19 80.25 294.60 77.49 293.14 C 74.48 291.44 70.84 290.59 67.47 291.76 Z" />
<path fill="#01812b" opacity="1.00" d=" M 287.40 290.51 C 295.56 287.75 304.26 291.02 310.58 296.33 C 316.35 302.54 317.50 312.29 313.62 319.78 C 311.79 324.20 308.33 327.63 304.74 330.66 C 301.33 333.88 296.29 333.31 291.98 333.47 C 284.49 333.41 276.99 329.21 272.95 322.92 C 271.60 318.22 271.84 313.10 272.39 308.27 C 274.19 300.46 280.04 293.63 287.40 290.51 M 279.16 306.39 C 276.62 310.22 279.67 314.21 280.84 317.91 C 282.23 322.42 286.42 325.48 290.66 327.12 C 294.75 328.00 298.73 325.93 302.53 324.66 C 306.24 323.48 306.45 319.14 308.21 316.26 C 311.37 311.57 306.77 306.71 306.28 301.91 C 302.26 299.90 298.21 297.77 293.84 296.68 C 287.35 296.24 282.77 301.79 279.16 306.39 Z" />
<path fill="#01812b" opacity="1.00" d=" M 68.51 299.74 C 72.89 297.68 77.67 300.88 79.27 304.95 C 79.61 308.32 78.02 312.05 75.04 313.80 C 69.70 316.04 62.36 311.49 62.62 305.54 C 63.87 303.05 65.84 300.73 68.51 299.74 Z" />
<path fill="#01812b" opacity="1.00" d=" M 292.52 304.63 C 297.27 303.94 302.88 309.16 300.92 314.04 C 300.04 316.70 298.40 320.11 295.04 319.78 C 290.01 320.53 284.18 316.19 284.79 310.89 C 286.36 307.88 289.16 305.40 292.52 304.63 Z" />
<path fill="#01812b" opacity="1.00" d=" M 331.51 332.63 C 337.50 332.66 343.50 332.64 349.50 332.62 C 349.55 333.65 349.59 334.69 349.65 335.74 C 344.82 335.81 339.99 335.70 335.17 335.81 C 335.17 338.61 335.18 341.42 335.19 344.23 C 339.39 344.22 343.60 344.22 347.80 344.25 C 347.69 345.32 347.58 346.40 347.48 347.48 C 343.38 347.42 339.28 347.45 335.19 347.37 C 335.16 351.47 335.32 355.59 335.01 359.69 C 333.84 359.63 332.68 359.58 331.52 359.54 C 331.58 350.57 331.57 341.60 331.51 332.63 Z" />
<path fill="#01812b" opacity="1.00" d=" M 408.32 332.43 C 409.07 332.51 410.55 332.68 411.29 332.77 C 411.81 341.71 411.37 350.69 411.51 359.65 C 409.97 359.66 408.08 360.04 408.11 357.84 C 405.79 359.77 402.58 360.48 399.74 359.34 C 392.25 355.68 392.62 342.12 400.94 339.76 C 403.64 338.80 406.05 340.57 408.29 341.82 C 408.23 338.69 408.25 335.56 408.32 332.43 M 400.27 343.47 C 396.79 346.79 397.07 353.03 400.42 356.35 C 403.38 358.79 407.46 356.37 408.23 353.02 C 408.57 350.03 408.89 346.55 406.79 344.09 C 405.28 342.20 402.01 341.57 400.27 343.47 Z" />
<path fill="#01812b" opacity="1.00" d=" M 473.11 332.57 C 474.56 332.57 476.03 332.58 477.50 332.62 C 475.72 334.83 474.29 338.06 470.98 337.99 C 471.62 336.16 472.37 334.37 473.11 332.57 Z" />
<path fill="#01812b" opacity="1.00" d=" M 379.61 340.71 C 383.30 338.60 389.27 339.45 390.44 344.08 C 390.79 349.24 390.52 354.42 390.62 359.59 C 389.52 359.58 388.42 359.59 387.33 359.60 C 387.32 354.67 387.26 349.75 387.29 344.83 C 386.03 343.76 384.85 342.09 382.97 342.44 C 381.21 342.36 379.98 343.81 378.60 344.66 C 377.88 349.68 378.47 354.76 377.96 359.80 C 376.85 359.64 375.76 359.48 374.67 359.32 C 374.68 353.00 374.87 346.67 374.63 340.35 C 376.65 339.94 378.49 340.31 378.74 342.67 C 379.02 342.01 379.31 341.36 379.61 340.71 Z" />
<path fill="#01812b" opacity="1.00" d=" M 415.93 345.76 C 417.24 338.63 428.47 337.30 432.15 343.01 C 432.90 348.52 431.69 354.20 433.09 359.67 C 431.18 359.71 429.31 359.58 429.19 357.26 C 426.18 359.88 421.67 360.76 418.03 358.98 C 414.41 357.12 414.83 351.23 418.45 349.62 C 421.70 348.08 425.43 348.21 428.89 347.37 C 429.59 344.25 427.16 341.68 423.99 342.30 C 421.46 341.83 420.40 344.27 418.98 345.80 C 418.21 345.79 416.69 345.77 415.93 345.76 M 419.55 352.66 C 417.35 356.97 423.84 359.06 426.59 356.42 C 429.02 355.20 428.79 352.36 428.97 350.05 C 425.86 350.87 422.10 350.49 419.55 352.66 Z" />
<path fill="#01812b" opacity="1.00" d=" M 438.19 343.22 C 441.46 337.53 452.66 338.58 452.83 345.85 C 450.33 347.67 449.53 344.07 447.77 342.97 C 445.05 341.06 441.34 343.22 440.43 346.10 C 439.87 349.51 439.79 353.28 441.81 356.26 C 443.99 357.14 446.35 357.73 448.57 356.59 C 449.34 355.12 450.09 353.65 450.85 352.18 C 451.53 352.47 452.91 353.03 453.59 353.31 C 452.69 359.29 445.22 361.72 440.45 358.63 C 435.69 355.16 435.57 348.04 438.19 343.22 Z" />
<path fill="#01812b" opacity="1.00" d=" M 488.51 342.00 C 490.99 340.75 493.57 338.90 496.51 339.67 C 498.86 340.24 501.51 342.16 501.43 344.84 C 501.60 349.72 501.40 354.60 501.49 359.48 C 500.42 359.54 499.35 359.60 498.30 359.67 C 498.09 354.83 498.60 349.97 498.07 345.16 C 496.81 341.47 491.16 341.67 489.68 345.09 C 488.46 349.64 489.68 354.44 489.09 359.07 C 488.41 360.20 486.69 359.27 485.61 359.51 C 485.68 353.18 485.75 346.85 485.55 340.53 C 486.28 340.38 487.73 340.08 488.45 339.93 C 488.47 340.45 488.50 341.48 488.51 342.00 Z" />
<path fill="#01812b" opacity="1.00" d=" M 366.29 340.29 C 367.38 340.27 368.49 340.25 369.60 340.24 C 369.54 346.76 369.59 353.29 369.57 359.81 C 367.66 359.74 365.94 359.35 366.59 356.98 C 363.50 360.87 355.39 361.23 354.10 355.62 C 353.37 350.57 353.99 345.43 353.75 340.34 C 354.62 340.32 356.37 340.27 357.24 340.25 C 357.54 345.59 356.57 351.06 357.85 356.32 C 360.82 357.83 364.71 357.24 366.09 353.87 C 366.58 349.36 366.16 344.81 366.29 340.29 Z" />
<path fill="#01812b" opacity="1.00" d=" M 456.36 340.23 C 457.45 340.22 458.55 340.22 459.65 340.22 C 459.67 346.69 459.61 353.16 459.63 359.64 C 458.54 359.61 457.46 359.59 456.39 359.58 C 456.35 353.13 456.43 346.68 456.36 340.23 Z" />
<path fill="#01812b" opacity="1.00" d=" M 468.40 340.60 C 473.22 337.90 480.07 340.58 481.42 346.02 C 482.01 349.13 482.04 352.60 480.65 355.51 C 477.38 361.63 466.81 361.35 464.29 354.67 C 462.57 349.92 463.17 342.87 468.40 340.60 M 470.18 342.94 C 468.84 343.87 467.32 345.07 467.32 346.87 C 467.12 350.04 466.40 354.28 469.53 356.31 C 471.59 358.01 474.79 357.52 476.54 355.63 C 478.83 353.07 478.83 349.20 477.84 346.10 C 476.88 343.17 472.91 341.10 470.18 342.94 Z" />
<path fill="#01812b" opacity="1.00" d=" M 88.44 377.72 C 94.95 375.95 101.79 378.08 107.25 381.72 C 113.09 385.20 116.07 392.36 115.42 399.00 C 115.50 407.93 109.02 415.40 101.98 420.07 C 95.13 422.22 87.23 421.87 80.96 418.15 C 76.73 415.79 72.18 412.22 71.87 406.98 C 71.34 400.46 71.69 393.22 75.83 387.82 C 78.95 383.32 83.36 379.75 88.44 377.72 M 87.52 385.74 C 84.07 388.17 80.95 391.29 78.64 394.82 C 76.44 398.30 79.48 401.72 80.40 405.07 C 81.49 409.38 85.20 412.34 88.98 414.30 C 93.49 415.87 98.23 413.99 102.45 412.42 C 106.09 411.15 106.30 406.84 107.99 403.94 C 110.62 399.38 106.95 394.63 106.15 390.09 C 103.88 387.88 100.64 387.22 97.90 385.79 C 94.72 384.09 90.72 384.08 87.52 385.74 Z" />
<path fill="#01812b" opacity="1.00" d=" M 90.66 392.90 C 95.59 390.80 102.05 395.57 100.82 400.98 C 100.51 404.37 97.84 408.11 94.06 407.60 C 89.40 407.95 84.35 403.95 84.48 399.12 C 85.58 396.34 88.01 394.18 90.66 392.90 Z" />
<path fill="#01812b" opacity="1.00" d=" M 184.37 424.45 C 196.84 422.91 210.88 432.68 210.79 445.91 C 211.58 455.32 205.50 463.77 198.40 469.29 C 194.93 472.14 190.18 471.89 185.96 472.13 C 178.47 472.39 171.76 468.24 166.32 463.48 C 163.38 460.87 163.54 456.57 163.49 452.97 C 163.62 448.17 163.04 442.90 165.79 438.67 C 169.81 431.83 176.26 425.67 184.37 424.45 M 185.26 431.92 C 180.23 434.37 173.91 435.99 171.41 441.58 C 167.27 451.84 175.69 463.92 186.35 464.99 C 190.87 465.78 195.46 463.83 198.85 460.93 C 201.63 457.22 202.87 452.51 203.38 447.97 C 203.32 442.84 199.22 439.38 196.28 435.68 C 194.80 433.95 192.38 433.78 190.47 432.77 C 188.81 432.03 187.01 430.43 185.26 431.92 Z" />
<path fill="#01812b" opacity="1.00" d=" M 181.30 447.65 C 181.56 445.00 182.24 441.77 185.08 440.77 C 188.39 440.00 190.52 443.16 192.77 444.99 C 192.84 444.66 192.99 444.01 193.07 443.69 L 193.21 443.08 C 193.47 443.78 193.98 445.16 194.24 445.85 C 193.72 448.66 193.22 452.00 190.60 453.69 C 188.31 454.57 185.61 454.64 183.31 453.76 C 181.23 452.51 181.07 449.81 181.30 447.65 Z" />
<path fill="#01812b" opacity="1.00" d=" M 335.47 505.30 C 335.38 501.74 335.37 498.18 335.51 494.62 C 434.84 494.62 534.18 494.74 633.51 494.57 C 633.83 498.16 633.82 501.78 633.53 505.38 C 580.01 505.07 526.47 505.34 472.94 505.25 C 427.12 505.28 381.29 505.17 335.47 505.30 Z" />
</g>
<g id="#247f22ff">
<path fill="#247f22" opacity="1.00" d=" M 184.59 199.01 C 190.30 197.12 196.92 203.80 193.76 209.40 C 191.78 216.04 182.30 214.86 179.16 209.80 C 175.45 205.51 180.52 200.46 184.59 199.01 M 184.31 201.24 C 182.32 202.12 179.93 203.51 179.60 205.86 C 180.02 208.95 182.65 212.16 185.97 212.12 C 188.49 211.74 191.63 211.17 192.59 208.42 C 195.43 203.78 188.36 199.32 184.31 201.24 Z" />
<path fill="#247f22" opacity="1.00" d=" M 247.16 241.00 C 247.15 238.88 247.60 235.36 250.61 236.41 C 246.00 240.49 249.42 246.11 251.13 250.67 L 251.01 252.21 C 247.09 249.93 247.22 244.96 247.16 241.00 Z" />
<path fill="#247f22" opacity="1.00" d=" M 182.16 256.05 C 187.44 253.95 192.67 256.86 197.94 257.42 C 201.48 257.99 205.22 257.10 208.62 258.49 C 212.61 259.86 216.08 262.28 219.43 264.77 C 230.93 272.03 242.22 280.74 248.86 292.88 C 254.33 303.71 255.68 316.05 256.23 328.01 C 256.15 342.95 253.49 358.44 245.28 371.19 C 241.12 377.58 235.64 383.29 228.88 386.94 C 220.54 391.55 211.09 393.40 201.90 395.53 C 197.01 396.71 191.96 396.52 186.98 396.66 C 176.19 396.80 165.21 396.32 154.84 393.07 C 150.61 391.74 146.28 390.11 143.05 386.96 C 136.24 380.44 129.14 373.99 124.16 365.90 C 115.01 350.91 111.11 332.39 115.29 315.17 C 119.50 291.02 136.72 269.89 159.01 259.99 C 166.68 258.50 174.61 258.20 182.16 256.05 M 132.59 293.54 C 118.91 315.12 120.06 346.06 137.50 365.28 C 144.03 373.37 152.25 380.29 161.92 384.28 C 163.78 385.00 165.69 385.80 167.72 385.74 C 169.35 384.80 170.54 383.30 171.85 382.00 C 170.85 380.92 169.89 379.84 168.83 378.84 C 170.16 379.48 172.92 379.80 172.43 381.92 C 172.06 386.58 166.47 386.52 163.36 388.41 C 162.06 389.89 164.71 390.23 165.65 390.50 C 168.70 391.26 171.95 391.03 174.71 389.47 C 175.25 390.26 175.80 391.06 176.34 391.86 C 177.83 391.25 179.24 390.24 180.88 390.15 C 182.63 390.70 184.27 391.56 186.03 392.10 C 188.17 391.88 190.14 390.93 192.25 390.57 C 195.17 391.48 198.10 392.49 201.23 391.92 C 201.02 388.26 198.59 385.26 198.19 381.65 L 199.17 381.27 C 199.99 382.80 200.65 385.42 202.97 384.83 C 209.63 384.19 215.16 379.98 220.61 376.47 C 229.44 370.48 237.89 362.71 241.22 352.26 C 245.61 339.76 248.51 326.02 244.96 312.95 C 238.06 290.56 218.32 272.23 195.02 268.38 C 189.79 267.03 184.37 267.53 179.03 267.30 C 160.33 267.14 142.79 278.25 132.59 293.54 Z" />
<path fill="#247f22" opacity="1.00" d=" M 175.96 283.95 C 178.18 285.10 177.23 288.52 174.61 287.58 C 174.98 286.34 175.39 285.11 175.96 283.95 Z" />
<path fill="#247f22" opacity="1.00" d=" M 456.39 332.55 C 457.48 332.55 458.57 332.56 459.66 332.56 C 459.65 333.87 459.64 335.18 459.63 336.50 C 458.54 336.49 457.45 336.48 456.36 336.48 C 456.36 335.16 456.37 333.86 456.39 332.55 Z" />
<path fill="#247f22" opacity="1.00" d=" M 183.26 440.19 C 186.73 438.11 191.58 439.99 193.07 443.69 C 192.99 444.01 192.84 444.66 192.77 444.99 C 190.52 443.16 188.39 440.00 185.08 440.77 C 182.24 441.77 181.56 445.00 181.30 447.65 C 181.07 449.81 181.23 452.51 183.31 453.76 C 185.61 454.64 188.31 454.57 190.60 453.69 C 193.22 452.00 193.72 448.66 194.24 445.85 C 197.44 451.18 191.50 457.59 185.90 456.68 C 178.33 455.80 176.57 443.54 183.26 440.19 Z" />
</g>
<g id="#cacb02ff">
<path fill="#cacb02" opacity="1.00" d=" M 132.59 293.54 C 142.79 278.25 160.33 267.14 179.03 267.30 C 184.37 267.53 189.79 267.03 195.02 268.38 C 218.32 272.23 238.06 290.56 244.96 312.95 C 248.51 326.02 245.61 339.76 241.22 352.26 C 237.89 362.71 229.44 370.48 220.61 376.47 C 215.16 379.98 209.63 384.19 202.97 384.83 C 200.65 385.42 199.99 382.80 199.17 381.27 C 205.88 379.07 211.93 374.45 215.00 367.98 C 218.92 359.97 217.86 350.78 217.31 342.19 C 215.71 331.48 212.61 320.93 207.71 311.25 C 199.73 296.72 192.08 282.00 183.87 267.60 C 180.69 272.77 178.44 278.43 175.96 283.95 C 175.39 285.11 174.98 286.34 174.61 287.58 C 171.45 293.98 168.36 300.41 165.44 306.93 C 159.87 318.03 154.99 329.66 153.03 342.01 C 151.78 348.67 150.95 355.86 153.77 362.25 C 156.85 369.20 162.59 374.67 168.83 378.84 C 169.89 379.84 170.85 380.92 171.85 382.00 C 170.54 383.30 169.35 384.80 167.72 385.74 C 165.69 385.80 163.78 385.00 161.92 384.28 C 152.25 380.29 144.03 373.37 137.50 365.28 C 120.06 346.06 118.91 315.12 132.59 293.54 Z" />
<path fill="#cacb02" opacity="1.00" d=" M 184.56 309.20 C 186.81 313.45 186.16 318.34 186.94 322.93 C 188.52 332.73 188.44 342.75 190.57 352.45 C 194.53 350.78 198.59 352.39 201.99 354.50 C 198.91 359.76 192.66 362.42 189.85 367.85 C 189.50 373.70 189.94 379.58 189.60 385.44 C 187.23 386.46 184.08 387.28 182.69 384.42 C 180.74 379.52 182.34 374.10 182.07 368.98 C 181.37 359.56 182.41 349.98 180.43 340.69 C 179.73 336.62 176.47 333.49 176.30 329.28 C 179.04 328.99 181.38 330.29 183.49 331.87 C 183.91 324.32 184.88 316.78 184.56 309.20 Z" />
</g>
<g id="#040906ff">
<path fill="#040906" opacity="1.00" d=" M 309.93 361.31 C 313.67 361.37 317.41 361.38 321.15 361.40 C 326.00 379.11 331.89 396.53 336.86 414.22 C 342.64 396.67 347.78 378.87 353.55 361.30 C 356.87 361.45 360.18 361.46 363.50 361.43 C 363.42 382.19 363.47 402.94 363.47 423.69 C 361.72 423.61 359.98 423.58 358.26 423.34 C 360.29 423.84 360.55 426.16 361.20 427.81 C 366.37 444.57 371.74 461.27 376.72 478.09 C 381.97 460.07 388.03 442.28 393.87 424.43 C 388.08 423.82 382.26 421.07 379.18 415.95 C 376.30 410.81 375.78 404.79 375.48 399.02 C 375.45 386.48 375.46 373.94 375.49 361.40 C 378.03 361.39 380.58 361.40 383.13 361.48 C 383.15 374.68 383.02 387.87 383.20 401.07 C 383.22 405.98 384.16 411.59 388.47 414.63 C 393.40 418.03 400.13 417.76 405.53 415.63 C 410.70 413.34 412.01 407.03 412.29 401.95 C 412.46 388.42 412.29 374.88 412.36 361.36 C 414.86 361.40 417.37 361.41 419.87 361.45 C 419.75 374.63 419.97 387.81 419.76 400.99 C 419.66 407.08 418.60 413.69 414.32 418.34 C 410.94 422.06 406.02 424.04 401.07 424.46 C 394.08 444.73 387.25 465.06 380.24 485.34 C 377.80 485.28 375.35 485.28 372.91 485.27 C 366.10 464.69 359.04 444.20 352.18 423.65 C 353.56 423.67 354.94 423.70 356.33 423.73 C 356.23 406.51 356.27 389.29 356.34 372.07 C 350.49 389.12 345.47 406.47 339.92 423.63 C 337.72 423.59 335.52 423.69 333.34 423.52 C 327.70 407.09 323.35 390.14 317.63 373.74 C 316.91 376.09 316.77 378.54 316.87 380.99 C 317.07 395.18 316.60 409.38 317.12 423.56 C 314.65 423.57 312.19 423.59 309.72 423.60 C 309.74 421.89 309.78 420.20 309.81 418.51 C 309.12 418.20 307.74 417.59 307.05 417.29 C 302.45 422.83 295.94 427.02 288.70 427.93 C 284.84 428.43 280.87 428.31 277.10 427.29 C 262.73 423.75 253.16 408.46 254.65 394.00 C 255.48 378.65 269.24 364.47 284.99 365.32 C 293.11 365.06 300.55 369.35 306.09 374.98 C 307.04 376.28 308.59 375.19 309.84 375.09 C 309.67 370.50 309.65 365.90 309.93 361.31 M 282.48 377.66 C 279.36 378.37 277.11 380.80 274.64 382.66 C 270.34 385.75 267.74 390.88 266.87 396.02 C 266.72 403.59 272.59 409.44 277.90 414.08 C 283.00 417.04 289.34 416.54 294.84 415.05 C 300.19 411.23 304.43 404.80 303.80 397.99 C 303.25 392.32 302.62 385.90 297.88 382.04 C 293.52 378.84 287.99 376.38 282.48 377.66 Z" />
<path fill="#040906" opacity="1.00" d=" M 432.26 361.39 C 434.75 361.41 437.25 361.41 439.75 361.38 C 449.83 377.46 459.33 393.90 469.43 409.96 C 469.45 393.77 469.35 377.58 469.44 361.39 C 471.80 361.43 474.17 361.44 476.54 361.44 C 476.59 382.21 476.57 402.99 476.55 423.77 C 482.91 423.63 490.23 423.25 495.46 427.52 C 501.92 434.17 502.47 446.24 495.64 452.84 C 493.15 455.31 489.74 456.50 486.34 457.01 C 486.37 457.27 486.44 457.79 486.48 458.05 C 490.22 460.06 492.56 463.76 494.76 467.25 C 498.26 473.20 501.49 479.30 504.92 485.29 C 501.89 485.31 498.87 485.29 495.86 485.29 C 492.51 479.16 489.20 473.01 485.65 467.00 C 483.66 463.76 481.46 460.27 477.93 458.57 C 473.55 457.68 469.03 458.28 464.60 458.09 C 464.70 467.19 464.69 476.29 464.61 485.39 C 462.25 485.32 459.89 485.31 457.54 485.29 C 457.66 464.76 457.56 444.23 457.59 423.70 C 461.26 423.67 464.94 423.72 468.62 423.65 L 468.46 424.68 C 470.66 424.62 472.87 424.55 475.02 424.05 C 472.84 423.10 470.43 422.96 468.25 422.17 C 458.34 406.70 449.31 390.63 439.42 375.14 C 439.41 389.75 439.38 404.36 439.44 418.97 C 439.35 420.52 439.56 422.21 438.86 423.65 C 436.94 423.60 434.99 423.29 433.06 423.73 C 432.41 422.24 432.21 420.62 432.26 419.02 C 432.26 399.81 432.29 380.60 432.26 361.39 M 464.61 430.56 C 464.67 437.42 464.71 444.28 464.60 451.13 C 471.85 450.53 479.22 451.64 486.39 450.20 C 492.66 448.61 494.87 440.49 491.79 435.26 C 490.07 432.14 486.34 430.74 482.95 430.61 C 476.84 430.47 470.72 430.60 464.61 430.56 Z" />
<path fill="#040906" opacity="1.00" d=" M 489.19 361.36 C 497.52 361.58 505.87 361.16 514.19 361.60 C 520.64 361.86 526.78 365.33 530.24 370.78 C 535.74 379.00 536.11 389.36 535.32 398.89 C 534.36 406.01 531.88 413.33 526.49 418.34 C 522.35 422.17 516.50 423.01 511.11 423.52 C 503.76 423.62 496.40 423.67 489.05 423.45 C 489.28 402.75 489.01 382.06 489.19 361.36 M 496.52 368.70 C 496.61 384.54 496.56 400.39 496.54 416.24 C 503.19 415.96 510.01 416.98 516.53 415.27 C 520.66 414.25 523.76 410.88 525.34 407.05 C 528.28 400.10 528.20 392.31 527.47 384.93 C 526.72 378.94 523.65 372.58 517.90 370.03 C 510.97 367.93 503.64 368.95 496.52 368.70 Z" />
<path fill="#040906" opacity="1.00" d=" M 561.48 361.77 C 568.65 359.33 576.95 359.80 583.53 363.70 C 591.14 368.06 595.61 376.46 596.87 384.95 C 598.23 394.45 597.38 404.82 592.06 413.06 C 589.00 418.28 583.73 421.70 578.06 423.50 C 586.84 423.96 595.66 423.52 604.46 423.84 C 604.45 426.29 604.44 428.75 604.36 431.21 C 593.80 431.18 583.20 430.91 572.65 431.32 C 572.92 437.50 572.68 443.68 572.80 449.86 C 582.73 449.96 592.67 449.68 602.59 450.02 C 602.54 452.43 602.52 454.86 602.44 457.28 C 592.52 457.21 582.58 456.98 572.67 457.39 C 572.73 459.40 572.78 461.42 572.82 463.44 C 573.04 463.48 573.50 463.54 573.72 463.57 L 572.76 463.63 C 572.77 468.45 572.79 473.27 572.77 478.10 C 583.76 477.72 594.75 478.10 605.74 478.07 C 605.76 480.51 605.75 482.96 605.62 485.41 C 592.30 485.16 578.96 485.34 565.63 485.32 C 565.84 464.96 565.62 444.60 565.74 424.24 C 559.10 423.01 553.03 419.06 549.37 413.37 C 543.07 403.96 542.39 391.74 545.07 380.99 C 547.13 372.51 553.14 364.76 561.48 361.77 M 566.59 367.78 C 559.66 369.33 554.09 375.14 552.58 382.05 C 550.81 390.20 550.55 399.17 554.01 406.94 C 556.28 411.30 560.04 415.19 564.84 416.65 C 570.66 418.61 577.63 417.46 582.19 413.22 C 587.34 408.73 589.53 401.72 589.65 395.05 C 590.08 387.26 588.87 378.59 583.22 372.75 C 579.04 368.28 572.52 366.45 566.59 367.78 Z" />
<path fill="#040906" opacity="1.00" d=" M 283.20 384.25 C 292.68 381.48 300.60 393.30 296.53 401.64 C 294.18 409.00 283.49 411.90 278.35 405.76 C 271.72 399.54 274.41 386.84 283.20 384.25 Z" />
<path fill="#040906" opacity="1.00" d=" M 407.82 423.77 C 416.54 424.00 425.45 422.81 434.01 424.58 C 438.27 425.23 442.24 423.21 446.49 423.66 C 446.47 426.16 446.46 428.67 446.41 431.17 C 436.18 430.95 425.94 431.46 415.72 430.86 C 415.50 431.08 415.06 431.52 414.84 431.74 C 414.74 437.77 414.85 443.81 414.82 449.84 C 424.68 449.83 434.55 449.98 444.42 449.77 C 444.58 452.26 444.59 454.77 444.45 457.28 C 434.58 457.10 424.72 457.21 414.86 457.19 C 415.07 463.36 414.12 469.68 415.47 475.74 C 415.21 476.23 414.68 477.22 414.42 477.72 C 425.51 478.44 436.64 477.61 447.75 477.98 C 447.73 480.40 447.74 482.82 447.81 485.25 C 434.46 485.36 421.12 485.26 407.78 485.30 C 407.78 464.79 407.70 444.28 407.82 423.77 Z" />
<path fill="#040906" opacity="1.00" d=" M 511.62 423.61 C 520.47 424.06 529.42 422.99 538.21 424.37 C 546.54 425.72 552.24 433.35 554.25 441.11 C 556.46 449.89 556.43 459.34 554.04 468.09 C 552.02 475.45 546.89 482.86 538.95 484.39 C 529.92 486.19 520.61 484.92 511.46 485.30 C 511.64 464.74 511.34 444.17 511.62 423.61 M 518.70 431.11 C 518.74 446.71 518.71 462.30 518.72 477.90 C 524.13 477.85 529.57 478.10 534.97 477.64 C 539.14 477.32 543.17 474.85 545.04 471.06 C 548.86 463.75 549.03 455.11 548.12 447.08 C 547.24 440.78 544.01 433.72 537.44 431.77 C 531.26 430.66 524.94 431.33 518.70 431.11 Z" />
<path fill="#040906" opacity="1.00" d=" M 649.14 488.08 C 649.57 486.46 652.12 486.46 652.59 488.02 C 654.89 493.85 657.33 499.63 659.73 505.43 C 655.94 506.30 655.91 502.05 654.51 499.73 C 652.03 499.95 649.41 499.42 647.01 500.09 C 646.27 501.79 645.71 503.55 645.11 505.30 C 644.43 505.23 643.06 505.09 642.38 505.02 C 644.97 499.51 646.71 493.65 649.14 488.08 M 650.73 489.71 C 649.73 492.38 648.79 495.09 647.85 497.79 C 649.87 497.77 651.90 497.76 653.94 497.74 C 652.87 495.06 652.10 492.25 650.73 489.71 Z" />
<path fill="#040906" opacity="1.00" d=" M 672.00 487.93 C 675.95 484.95 683.57 487.17 683.57 492.42 C 680.94 493.72 680.89 489.75 678.83 489.30 C 675.73 487.87 671.69 489.58 670.92 492.98 C 669.63 497.03 670.86 503.38 676.07 503.53 C 679.26 504.15 681.00 501.14 682.10 498.71 C 682.68 499.02 683.83 499.66 684.40 499.97 C 683.15 502.11 681.77 504.79 679.05 505.21 C 675.98 505.49 672.12 505.80 670.09 502.96 C 666.83 498.52 667.03 491.08 672.00 487.93 Z" />
<path fill="#040906" opacity="1.00" d=" M 661.54 505.21 C 661.37 503.17 662.53 502.34 664.52 502.58 C 664.53 503.47 664.55 504.36 664.59 505.26 C 663.56 505.23 662.55 505.22 661.54 505.21 Z" />
<path fill="#040906" opacity="1.00" d=" M 687.50 502.60 C 688.63 502.73 690.10 502.44 690.37 504.01 C 690.03 505.81 688.56 505.32 687.32 505.06 C 687.36 504.45 687.46 503.22 687.50 502.60 Z" />
</g>
</svg>
