<?xml version="1.0" encoding="UTF-8" ?>
<!DOCTYPE svg PUBLIC "-//W3C//DTD SVG 1.1//EN" "http://www.w3.org/Graphics/SVG/1.1/DTD/svg11.dtd">
<svg width="289pt" height="49pt" viewBox="0 0 389 79" version="1.1" xmlns="http://www.w3.org/2000/svg">
<g id="#000fffff">
</g>
<g id="#000ff">
<path fill="#000" opacity="1.00" d=" M 62.80 14.38 C 63.45 11.63 61.10 6.99 64.40 5.64 C 64.49 13.24 64.54 20.83 64.37 28.43 C 63.91 28.05 62.99 27.29 62.53 26.91 C 60.13 27.77 57.30 28.74 55.02 27.08 C 51.25 23.79 52.11 16.17 57.05 14.44 C 58.88 13.58 60.89 14.24 62.80 14.38 M 55.79 16.81 C 53.87 19.25 53.82 22.95 55.53 25.52 C 57.60 27.46 60.54 26.34 62.82 25.49 C 62.74 22.21 62.77 18.93 62.75 15.65 C 60.43 15.29 57.54 14.77 55.79 16.81 Z" />
<path fill="#000" opacity="1.00" d=" M 6.54 8.00 C 10.42 8.00 14.31 8.00 18.20 8.00 L 18.31 9.46 C 14.95 9.46 11.60 9.46 8.24 9.46 C 8.24 12.30 8.24 15.15 8.23 18.00 C 11.15 18.00 14.08 18.00 17.00 18.00 L 17.00 19.46 C 14.08 19.46 11.16 19.46 8.24 19.46 C 8.24 22.31 8.23 25.15 8.23 28.00 L 6.54 28.00 C 6.54 21.33 6.54 14.67 6.54 8.00 Z" />
<path fill="#000" opacity="1.00" d=" M 95.70 9.02 C 95.68 7.26 98.64 7.21 98.67 8.97 C 98.72 10.74 95.75 10.78 95.70 9.02 Z" />
<path fill="#000" opacity="1.00" d=" M 106.14 13.01 C 107.75 11.22 109.75 9.82 111.98 8.91 C 111.44 11.58 108.29 12.13 106.14 13.01 Z" />
<path fill="#000" opacity="1.00" d=" M 21.87 14.49 C 22.26 14.29 23.04 13.90 23.43 13.71 C 23.55 17.46 23.30 21.22 23.55 24.96 C 25.10 27.90 28.78 26.28 31.04 25.21 C 31.06 21.62 30.78 18.00 31.17 14.42 C 31.55 14.24 32.30 13.86 32.68 13.67 C 32.77 18.44 32.69 23.22 32.74 27.99 C 32.35 27.97 31.58 27.94 31.20 27.93 L 31.39 26.09 C 28.74 27.85 24.21 29.33 22.20 25.92 C 21.32 22.20 21.81 18.27 21.87 14.49 Z" />
<path fill="#000" opacity="1.00" d=" M 38.02 13.88 C 38.60 14.14 39.74 14.66 40.31 14.93 C 42.96 14.09 46.88 13.02 48.59 15.95 C 49.49 19.98 48.83 24.24 48.95 28.36 C 48.61 28.18 47.94 27.81 47.60 27.62 C 47.28 24.09 47.93 20.49 47.24 17.00 C 45.67 14.08 41.86 15.86 39.46 16.56 C 39.46 20.35 39.45 24.14 39.48 27.92 C 39.11 27.95 38.37 28.01 38.00 28.04 C 38.01 23.32 37.98 18.60 38.02 13.88 Z" />
<path fill="#000" opacity="1.00" d=" M 68.57 15.72 C 71.56 14.23 76.78 12.42 78.51 16.45 C 78.99 20.39 78.64 24.40 78.67 28.36 C 78.13 27.98 77.05 27.20 76.50 26.82 C 73.76 28.27 68.81 29.00 68.00 25.00 C 68.01 20.28 74.16 20.40 77.50 19.79 C 77.03 18.44 77.19 16.65 75.93 15.72 C 73.59 14.82 71.26 16.04 69.12 16.89 L 68.57 15.72 M 69.70 24.98 C 71.16 28.05 75.06 26.11 77.31 25.11 C 77.29 24.10 77.25 22.09 77.24 21.08 C 74.62 21.63 69.71 21.23 69.70 24.98 Z" />
<path fill="#000" opacity="1.00" d=" M 86.39 14.55 C 88.69 13.57 91.68 13.79 93.47 15.66 C 90.91 15.91 87.70 14.48 85.68 16.65 C 83.54 19.02 83.56 23.04 85.39 25.59 C 87.79 27.63 90.84 26.05 93.31 25.09 C 93.20 27.70 89.76 28.04 87.79 28.02 C 81.15 27.45 80.70 16.85 86.39 14.55 Z" />
<path fill="#000" opacity="1.00" d=" M 96.65 14.49 C 97.03 14.27 97.79 13.82 98.17 13.59 C 98.30 18.41 98.21 23.22 98.23 28.04 C 97.80 28.01 96.95 27.96 96.52 27.94 C 96.64 23.46 96.35 18.97 96.65 14.49 Z" />
<path fill="#000" opacity="1.00" d=" M 105.51 14.64 C 108.21 13.41 111.96 13.85 113.67 16.47 C 116.17 20.49 114.80 27.75 109.19 27.98 C 101.80 29.42 99.19 17.41 105.51 14.64 M 105.29 16.27 C 101.96 19.40 103.38 27.52 108.96 26.57 C 113.18 26.57 114.09 21.18 112.81 18.05 C 111.75 15.06 107.66 14.55 105.29 16.27 Z" />
<path fill="#000" opacity="1.00" d=" M 118.90 27.59 C 118.85 23.09 118.26 18.26 119.20 13.94 C 119.63 14.18 120.49 14.68 120.92 14.93 C 123.60 14.16 127.37 13.00 129.29 15.79 C 130.25 19.74 129.49 23.93 129.73 27.98 C 129.36 27.98 128.64 28.00 128.27 28.01 C 128.06 24.11 128.86 20.06 127.69 16.27 C 125.65 14.64 122.82 15.63 120.64 16.39 C 119.70 20.22 120.50 24.33 120.22 28.27 C 119.89 28.10 119.23 27.76 118.90 27.59 Z" />
<path fill="#000" opacity="1.00" d=" M 152.34 34.19 C 152.46 28.02 151.56 21.79 152.82 15.68 C 154.39 15.84 156.12 15.66 157.44 16.70 C 157.89 18.10 157.57 19.59 157.57 21.03 C 156.91 36.97 157.34 52.96 158.69 68.86 C 157.76 71.06 153.02 72.38 152.88 69.03 C 152.58 61.48 153.44 53.91 152.77 46.36 C 151.42 53.84 148.79 61.20 144.35 67.41 C 141.99 70.68 138.20 73.61 133.93 72.94 C 130.45 72.08 128.58 68.45 128.37 65.10 C 127.52 57.84 131.49 51.20 135.55 45.54 C 138.76 41.40 142.17 37.09 146.87 34.58 C 148.56 33.57 150.50 33.85 152.34 34.19 M 148.89 42.24 C 147.24 41.92 146.75 40.78 147.41 38.82 C 140.81 45.01 134.54 52.69 133.46 61.99 C 133.46 63.91 133.56 67.13 135.87 67.63 C 138.79 67.24 140.83 64.77 142.43 62.51 C 147.26 54.66 150.18 45.83 152.87 37.06 C 151.62 38.84 150.46 40.72 148.89 42.24 Z" />
<path fill="#000" opacity="1.00" d=" M 5.65 34.98 C 7.42 34.99 9.19 35.01 10.97 35.03 C 12.54 45.32 12.58 55.77 12.72 66.15 C 14.65 57.54 17.09 48.95 21.11 41.05 C 22.30 38.66 23.99 36.57 26.07 34.90 C 28.18 35.20 31.35 34.20 32.06 36.98 C 34.36 44.00 32.49 51.58 33.54 58.73 C 34.00 52.96 35.59 47.28 38.10 42.06 C 39.31 39.74 41.13 37.11 44.01 36.96 C 47.59 37.17 49.07 41.00 50.00 43.92 C 52.14 51.73 52.38 59.92 52.49 67.97 C 52.38 69.51 52.75 71.30 51.64 72.57 C 50.40 73.81 48.77 73.22 47.30 72.90 C 46.24 62.37 48.35 51.13 44.09 41.16 C 42.67 42.41 41.47 43.90 40.74 45.66 C 37.28 53.38 35.28 61.65 32.88 69.74 C 32.21 71.64 29.76 71.60 28.28 70.78 C 27.25 60.45 29.78 49.94 27.84 39.64 C 26.47 40.97 25.17 42.41 24.36 44.17 C 20.10 53.09 17.07 62.53 13.71 71.81 C 13.10 73.87 11.02 74.83 9.00 74.07 C 7.68 71.64 8.13 68.70 7.83 66.04 C 7.55 55.66 6.39 45.32 5.65 34.98 Z" />
<path fill="#000" opacity="1.00" d=" M 82.42 36.27 C 84.01 34.84 86.00 36.59 87.47 37.35 C 87.45 45.27 87.76 53.20 88.29 61.11 C 88.39 64.43 89.66 67.60 91.81 70.12 C 91.22 73.18 87.15 74.54 85.54 71.50 C 81.56 63.96 83.08 55.11 82.55 46.93 C 80.20 54.65 75.67 61.49 70.80 67.83 C 68.76 70.36 65.64 73.60 62.08 72.01 C 60.10 70.72 59.92 68.10 59.64 65.97 C 59.04 56.64 60.17 46.91 64.30 38.43 C 65.21 35.78 68.22 36.65 70.33 36.65 C 68.57 40.72 66.45 44.70 65.52 49.08 C 64.27 55.10 64.12 61.34 64.81 67.44 C 69.01 64.40 71.74 59.88 74.35 55.51 C 77.83 49.47 80.96 43.13 82.42 36.27 Z" />
<path fill="#000" opacity="1.00" d=" M 95.60 38.85 C 96.33 36.49 98.98 36.54 100.99 36.54 C 102.87 44.45 101.91 52.71 103.38 60.70 C 104.89 55.24 107.45 50.16 109.95 45.10 C 111.33 42.46 113.08 39.60 116.05 38.59 C 117.75 38.30 119.97 38.48 120.72 40.33 C 121.92 42.99 122.10 45.97 122.32 48.85 C 122.73 56.25 122.81 63.66 122.70 71.07 C 122.91 72.49 121.80 73.49 121.11 74.57 C 119.58 74.31 117.30 74.91 116.60 73.01 C 116.28 62.90 118.89 52.62 116.50 42.64 C 110.14 50.14 108.12 60.11 103.99 68.82 C 102.91 70.35 99.04 70.89 98.84 68.50 C 97.61 58.64 96.98 48.70 95.60 38.85 Z" />
<path fill="#000" opacity="1.00" d=" M 170.98 39.97 C 172.89 37.76 175.92 38.12 178.41 38.89 C 177.84 40.33 176.92 41.36 175.65 42.00 C 176.03 42.48 176.41 42.96 176.80 43.44 C 178.72 42.12 181.02 42.23 183.24 42.21 C 183.08 45.38 186.46 46.63 188.17 48.78 C 191.00 51.27 192.30 55.34 191.05 58.96 C 188.79 65.90 182.51 72.00 174.99 72.46 C 172.09 72.60 168.86 72.38 166.55 70.40 C 163.60 67.85 162.60 63.63 163.18 59.89 C 164.07 52.78 166.34 45.54 170.98 39.97 M 175.13 43.10 C 171.52 49.42 167.85 56.40 168.84 63.93 C 169.75 68.39 175.56 68.61 178.88 66.86 C 183.15 64.51 186.91 59.52 185.71 54.44 C 183.52 49.50 177.14 48.21 175.13 43.10 Z" />
</g>
<g id="#00b050ff">
<path fill="#00b050" opacity="1.00" d=" M 343.44 16.27 C 344.91 14.61 347.02 16.24 348.65 16.72 C 348.52 24.16 347.87 31.58 348.01 39.02 C 348.67 48.87 348.33 58.79 349.60 68.60 C 348.82 71.00 346.03 71.04 343.96 71.08 C 342.71 63.05 344.08 54.86 343.61 46.75 C 342.10 54.28 339.46 61.73 334.85 67.94 C 332.56 71.02 328.94 73.58 324.92 72.97 C 322.11 72.73 320.22 70.16 319.48 67.64 C 318.32 62.84 319.14 57.71 321.39 53.34 C 324.73 46.76 329.31 40.73 335.04 36.06 C 337.23 34.17 340.17 33.33 343.01 34.05 C 343.31 28.13 342.09 22.12 343.44 16.27 M 342.97 38.06 C 341.83 39.74 340.62 41.37 339.21 42.84 C 338.77 42.02 337.88 40.38 337.43 39.55 C 333.90 43.07 330.55 46.82 328.10 51.19 C 325.21 56.07 322.86 62.31 325.69 67.75 C 330.42 67.17 333.08 62.86 335.08 59.02 C 338.43 52.34 341.22 45.34 342.97 38.06 Z" />
<path fill="#00b050" opacity="1.00" d=" M 249.78 31.57 C 252.09 30.39 253.77 32.39 255.05 34.04 C 247.86 40.11 244.77 49.42 242.05 58.11 C 240.53 62.96 239.90 68.02 238.94 72.99 C 238.93 76.09 233.78 77.42 232.62 74.45 C 227.02 64.11 223.16 52.88 217.18 42.73 C 215.86 42.86 213.99 42.83 213.95 41.03 C 214.05 37.96 217.96 35.01 220.53 37.52 C 224.68 42.73 226.94 49.15 229.73 55.13 C 231.46 59.35 233.72 63.36 234.98 67.76 C 235.91 59.20 238.76 50.93 242.18 43.07 C 244.29 39.01 246.24 34.60 249.78 31.57 Z" />
<path fill="#00b050" opacity="1.00" d=" M 266.39 38.30 C 270.57 35.17 277.19 33.83 281.39 37.56 C 283.80 39.71 282.08 43.23 280.17 45.08 C 275.34 49.53 268.82 51.66 262.48 52.89 C 261.51 57.12 260.93 62.41 264.25 65.79 C 267.32 68.53 272.12 67.41 275.07 65.03 C 278.95 61.70 281.16 56.94 283.35 52.42 C 284.02 52.40 285.37 52.36 286.05 52.34 C 285.72 58.40 282.40 64.01 278.12 68.16 C 273.57 72.96 265.41 73.91 260.03 69.96 C 256.63 67.49 255.60 63.00 255.60 59.02 C 256.05 51.05 259.90 43.06 266.39 38.30 M 263.34 48.51 C 268.35 47.90 273.65 45.88 276.86 41.84 C 278.21 40.11 275.25 39.42 274.05 39.57 C 268.88 39.69 265.73 44.54 263.34 48.51 Z" />
<path fill="#00b050" opacity="1.00" d=" M 306.42 36.37 C 309.85 34.21 314.83 35.80 316.82 39.21 C 317.77 41.13 315.79 42.47 314.67 43.68 C 314.11 43.65 312.99 43.60 312.43 43.57 C 310.98 42.39 309.28 39.02 307.16 40.89 C 302.93 45.12 300.59 50.82 297.99 56.12 C 295.19 61.06 298.55 66.74 297.12 71.89 C 295.75 74.92 291.63 73.15 291.86 70.15 C 290.74 59.82 291.51 49.37 290.68 39.01 C 290.61 36.11 294.47 37.22 296.30 37.00 C 297.39 41.58 296.22 46.18 296.37 50.77 C 298.30 49.67 297.53 47.11 298.57 45.45 C 300.62 42.02 302.93 38.48 306.42 36.37 Z" />
<path fill="#00b050" opacity="1.00" d=" M 357.98 47.05 C 360.71 41.80 365.24 37.09 371.13 35.61 C 374.76 34.89 379.53 35.36 381.44 39.02 C 382.10 41.83 380.11 44.44 378.04 46.10 C 373.27 49.81 367.37 51.78 361.49 52.89 C 360.50 57.11 359.94 62.42 363.26 65.79 C 366.32 68.52 371.10 67.41 374.04 65.05 C 377.93 61.72 380.16 56.97 382.33 52.44 C 383.01 52.41 384.38 52.36 385.06 52.34 C 384.66 58.86 380.93 64.84 376.11 69.08 C 370.72 73.84 360.98 73.69 356.71 67.51 C 353.01 61.18 354.70 53.20 357.98 47.05 M 362.34 48.52 C 366.98 48.04 371.47 46.10 374.96 43.01 C 376.05 42.24 376.93 39.97 374.87 39.80 C 368.98 38.39 364.87 44.07 362.34 48.52 Z" />
</g>
</svg>
