<?xml version="1.0" encoding="UTF-8" ?>
<!DOCTYPE svg PUBLIC "-//W3C//DTD SVG 1.1//EN" "http://www.w3.org/Graphics/SVG/1.1/DTD/svg11.dtd">
<svg width="127pt" height="118pt" viewBox="0 0 127 118" version="1.1" xmlns="http://www.w3.org/2000/svg">
<g id="#ffffffff">
</g>
<g id="#000000ff">
<path fill="#000000" opacity="1.00" d=" M 51.82 29.88 C 55.76 24.45 59.07 18.38 64.19 13.93 C 84.06 44.54 105.82 73.94 124.77 105.13 C 104.22 106.68 83.59 105.84 63.00 105.99 C 42.42 105.85 21.81 106.67 1.27 105.15 C 4.58 98.71 8.81 92.81 12.79 86.79 C 26.12 68.04 38.99 48.98 51.82 29.88 M 63.45 21.79 C 45.75 48.30 27.27 74.28 9.64 100.82 C 45.22 101.11 80.80 101.14 116.38 100.81 C 99.17 74.18 80.95 48.23 63.45 21.79 Z" />
<path fill="#000000" opacity="1.00" d=" M 62.04 30.02 C 62.78 30.01 64.24 30.01 64.97 30.00 C 79.35 52.75 96.36 73.82 109.80 97.14 C 78.99 98.45 48.02 98.65 17.21 97.29 C 31.00 74.15 47.32 52.57 62.04 30.02 M 25.70 92.83 C 50.94 93.09 76.18 93.15 101.41 92.79 C 88.89 74.14 76.21 55.59 63.72 36.92 C 50.62 55.26 38.26 74.12 25.70 92.83 Z" />
<path fill="#000000" opacity="1.00" d=" M 49.89 65.93 C 54.38 59.45 58.23 52.33 64.23 47.06 C 73.31 61.13 83.79 74.39 91.80 89.13 C 72.98 90.36 54.04 90.66 35.23 89.29 C 39.47 81.12 44.95 73.67 49.89 65.93 M 43.63 84.88 C 56.88 85.10 70.13 85.03 83.38 84.82 C 76.91 74.77 70.24 64.86 63.70 54.86 C 56.72 64.66 50.07 74.71 43.63 84.88 Z" />
</g>
<g id="#22b14cff">
<path fill="#22b14c" opacity="1.00" d=" M 63.45 21.79 C 80.95 48.23 99.17 74.18 116.38 100.81 C 80.80 101.14 45.22 101.11 9.64 100.82 C 27.27 74.28 45.75 48.30 63.45 21.79 M 62.04 30.02 C 47.32 52.57 31.00 74.15 17.21 97.29 C 48.02 98.65 78.99 98.45 109.80 97.14 C 96.36 73.82 79.35 52.75 64.97 30.00 C 64.24 30.01 62.78 30.01 62.04 30.02 Z" />
<path fill="#22b14c" opacity="1.00" d=" M 43.63 84.88 C 50.07 74.71 56.72 64.66 63.70 54.86 C 70.24 64.86 76.91 74.77 83.38 84.82 C 70.13 85.03 56.88 85.10 43.63 84.88 Z" />
</g>
<g id="#b5e61dff">
<path fill="#b5e61d" opacity="1.00" d=" M 25.70 92.83 C 38.26 74.12 50.62 55.26 63.72 36.92 C 76.21 55.59 88.89 74.14 101.41 92.79 C 76.18 93.15 50.94 93.09 25.70 92.83 M 49.89 65.93 C 44.95 73.67 39.47 81.12 35.23 89.29 C 54.04 90.66 72.98 90.36 91.80 89.13 C 83.79 74.39 73.31 61.13 64.23 47.06 C 58.23 52.33 54.38 59.45 49.89 65.93 Z" />
</g>
</svg>
